<?xml version="1.0" encoding="UTF-8"?>
<svg version="1.1" xmlns="http://www.w3.org/2000/svg" width="177" height="208">
<path d="M0 0 C1.15538773 -0.00671722 2.31077545 -0.01343445 3.50117493 -0.02035522 C7.31096732 -0.03931319 11.12058333 -0.04325833 14.93041992 -0.04541016 C16.9150335 -0.05021344 18.89964712 -0.05502047 20.8842594 -0.06033099 C27.12174581 -0.07658192 33.35917454 -0.08150298 39.59667969 -0.08007812 C46.00933984 -0.0788776 52.42166295 -0.09996895 58.83423787 -0.13156545 C64.35892166 -0.15780685 69.8834959 -0.16844214 75.40824145 -0.16716731 C78.69947687 -0.16665995 81.99034698 -0.17408612 85.28153419 -0.19352341 C88.95750222 -0.2132009 92.63261077 -0.20733735 96.30859375 -0.1953125 C97.3837323 -0.20655151 98.45887085 -0.21779053 99.56658936 -0.22937012 C107.96337823 -0.1598562 116.60787956 1.64496438 122.98118019 7.57773972 C129.37275905 15.58487056 131.23272407 23.81531756 131.09301758 33.81689453 C131.10031891 35.00548569 131.10762024 36.19407684 131.11514282 37.41868591 C131.13122537 41.30885742 131.10425078 45.19732902 131.07495117 49.08740234 C131.07098672 51.80878396 131.07484908 54.53014446 131.07797241 57.25152588 C131.0797303 62.9370924 131.05773947 68.62217831 131.02075195 74.30761719 C130.97834642 80.86305522 130.97141868 87.41779229 130.98387587 93.9733398 C130.99529461 100.30911475 130.98394041 106.64464516 130.96152878 112.98038483 C130.95228641 115.66442681 130.9504672 118.34831804 130.95470047 121.03237152 C130.95544391 124.78256585 130.93014663 128.53170313 130.89770508 132.28173828 C130.90265991 133.38426437 130.90761475 134.48679047 130.91271973 135.62272644 C130.78248248 145.07686762 127.81066019 151.51919143 121.40698242 158.52880859 C113.35405813 165.42040035 102.59669184 165.44076865 92.56054688 165.4675293 C90.94713661 165.47738609 90.94713661 165.47738609 89.3011322 165.48744202 C85.75047732 165.50711148 82.19986461 165.51882334 78.64916992 165.52880859 C77.43275503 165.53288412 76.21634014 165.53695965 74.96306419 165.54115868 C68.52485704 165.56199207 62.08667103 165.57630577 55.6484375 165.58569336 C49.01544713 165.59675359 42.38279259 165.63115747 35.74992085 165.67086506 C30.63420508 165.69706676 25.51856894 165.70538837 20.40279198 165.70897484 C17.95849527 165.71383132 15.51420189 165.72541834 13.06997108 165.74401283 C9.64078081 165.76847969 6.21245479 165.76742506 2.78320312 165.76049805 C1.28574051 165.77971313 1.28574051 165.77971313 -0.24197388 165.79931641 C-9.94370743 165.72831668 -18.83736483 163.19494079 -25.92895508 156.32177734 C-37.2300012 142.99628079 -33.79158221 122.41286618 -33.70629883 106.09130859 C-33.70058994 104.89109762 -33.69488106 103.69088665 -33.68899918 102.45430565 C-33.65762911 96.11441841 -33.61879432 89.77462359 -33.57446289 83.43481445 C-33.53054816 76.90853553 -33.51486399 70.38249787 -33.50523186 63.8560915 C-33.49234898 58.81233867 -33.45763698 53.76890123 -33.41711807 48.72530174 C-33.40167892 46.31931607 -33.39452982 43.91326169 -33.3960228 41.50722694 C-33.39620293 38.14051351 -33.3651846 34.77540212 -33.3269043 31.40893555 C-33.33748619 29.9366021 -33.33748619 29.9366021 -33.34828186 28.43452454 C-33.22517467 21.60009355 -31.69654955 15.91220597 -27.65161133 10.29052734 C-26.66161133 9.96052734 -25.67161133 9.63052734 -24.65161133 9.29052734 C-24.32161133 8.30052734 -23.99161133 7.31052734 -23.65161133 6.29052734 C-22.99161133 6.29052734 -22.33161133 6.29052734 -21.65161133 6.29052734 C-21.65161133 5.63052734 -21.65161133 4.97052734 -21.65161133 4.29052734 C-20.66161133 4.29052734 -19.67161133 4.29052734 -18.65161133 4.29052734 C-18.65161133 3.63052734 -18.65161133 2.97052734 -18.65161133 2.29052734 C-12.39895181 0.07565581 -6.59388262 -0.00552761 0 0 Z M65.51293945 25.30480957 C58.14668268 25.33254034 50.78093163 25.3937385 43.41509247 25.47443008 C39.74895652 25.51418265 36.08307454 25.54627737 32.41674805 25.56152344 C28.8188671 25.57673101 25.2216312 25.61118743 21.6240387 25.65883636 C19.61684944 25.68061302 17.60947935 25.68299061 15.60217285 25.68487549 C5.74896671 25.71216637 5.74896671 25.71216637 -2.65161133 30.29052734 C-5.83348059 35.22076244 -6.08789045 39.28577295 -6.05566406 44.95458984 C-6.06252731 45.80414246 -6.06939056 46.65369507 -6.07646179 47.5289917 C-6.0946963 50.32467573 -6.09089754 53.11979687 -6.08520508 55.91552734 C-6.08976807 57.86556175 -6.095074 59.81559454 -6.10108948 61.765625 C-6.11001369 65.84756006 -6.10760479 69.92929939 -6.09765625 74.01123047 C-6.08616 79.23683702 -6.10639172 84.46176849 -6.13557339 89.68728638 C-6.15393538 93.71252721 -6.15364305 97.73760621 -6.14793587 101.76287842 C-6.14778269 103.68936104 -6.15382382 105.61585466 -6.16622734 107.54229736 C-6.18113774 110.23744878 -6.17046069 112.93135197 -6.15332031 115.62646484 C-6.16298828 116.41833191 -6.17265625 117.21019897 -6.18261719 118.02606201 C-6.11359116 123.22029719 -5.06973983 126.16242962 -1.65161133 130.29052734 C3.29094667 133.82092591 8.46855589 134.16196836 14.34838867 133.29052734 C17.6463661 131.58046497 19.73761248 130.02613949 22.09988403 127.18104553 C25.13854759 124.62617034 27.01157613 124.79168228 30.94946289 124.79223633 C31.93074661 124.78395813 31.93074661 124.78395813 32.93185425 124.7755127 C34.34828571 124.76620772 35.76480083 124.76607523 37.18124008 124.77410698 C39.4267617 124.7867545 41.67105711 124.77543225 43.91653442 124.7580719 C47.8762739 124.73137044 51.83571246 124.72577595 55.79553223 124.72717285 C62.12602876 124.72940089 68.4561517 124.71517779 74.78650284 124.67158699 C76.99238115 124.66177979 79.19766814 124.67045057 81.40353394 124.68028259 C82.76520163 124.67413473 84.12686615 124.66722178 85.48852539 124.65942383 C86.6711496 124.66038559 87.8537738 124.66134735 89.07223511 124.66233826 C93.38869554 124.17246284 96.73883101 122.72421885 99.99291992 119.82568359 C104.23302647 114.47946229 104.47322491 110.98066323 104.50952148 104.24633789 C104.51448639 103.54498718 104.51945129 102.84363647 104.52456665 102.12103271 C104.53914191 99.80642709 104.54598267 97.49189002 104.55151367 95.17724609 C104.55726915 93.56305439 104.56302683 91.9488627 104.56878662 90.33467102 C104.57928357 86.95121951 104.58513471 83.56779167 104.58862305 80.18432617 C104.59410361 75.86016353 104.61812763 71.53631642 104.646595 67.21225262 C104.66526823 63.87755942 104.67042948 60.54294151 104.67195892 57.20820045 C104.67497565 55.61467579 104.68297094 54.02115214 104.6961441 52.42767906 C104.71330255 50.19251235 104.71130093 47.95810721 104.70483398 45.72290039 C104.70847961 44.45367233 104.71212524 43.18444427 104.71588135 41.87675476 C104.19536242 36.79719977 102.74062995 32.90030632 99.34838867 28.97802734 C92.69930483 25.23791768 85.40337392 25.19182884 77.91674805 25.23876953 C76.87170483 25.24373003 76.87170483 25.24373003 75.80554962 25.24879074 C74.35939121 25.25604118 72.91324018 25.26495035 71.46710205 25.27549744 C69.48240707 25.28957663 67.49767061 25.29741894 65.51293945 25.30480957 Z M-8.65161133 144.29052734 C-10.61745117 148.29781626 -10.93093352 150.30358893 -9.71411133 154.60302734 C-6.98532519 158.15871837 -5.04537656 158.68449076 -0.65161133 159.29052734 C2.43674336 158.58862855 3.89484456 157.72843201 6.16088867 155.54052734 C7.7595008 152.51157806 7.83210003 150.67650683 7.34838867 147.29052734 C5.54141838 144.27891019 4.27303789 142.69037565 1.03588867 141.29052734 C-2.91461907 141.29052734 -5.27681775 142.25291612 -8.65161133 144.29052734 Z " fill="#FD771F" transform="translate(39.651611328125,14.70947265625)"/>
<path d="M0 0 C1.30823227 -0.0127597 2.61646454 -0.02551941 3.96434021 -0.03866577 C5.39427544 -0.04172306 6.82421264 -0.04395102 8.25415039 -0.04541016 C9.72001781 -0.05183692 11.18588394 -0.05856519 12.65174866 -0.06558228 C15.7242429 -0.07755746 18.79662469 -0.08126282 21.86914062 -0.08007812 C25.80479893 -0.07987482 29.73973603 -0.10718665 33.67522335 -0.14162254 C36.70271614 -0.16386721 39.73003463 -0.16791645 42.75760078 -0.16685867 C44.20847626 -0.16921794 45.6593563 -0.17805992 47.11015129 -0.19352341 C49.13974581 -0.21313192 51.16955185 -0.20483607 53.19921875 -0.1953125 C54.3537706 -0.19816254 55.50832245 -0.20101257 56.69786072 -0.20394897 C60.29424827 0.3955322 61.50885561 1.39459887 63.66430664 4.29052734 C63.5028046 7.6820703 63.08133907 8.87349492 60.66430664 11.29052734 C57.86244202 11.55122375 57.86244202 11.55122375 54.24267578 11.56518555 C53.58395981 11.57029648 52.92524384 11.57540741 52.24656677 11.58067322 C50.06410697 11.59459929 47.8819619 11.59361021 45.69946289 11.59130859 C44.18493024 11.59519401 42.67039867 11.59952836 41.15586853 11.60429382 C37.97903921 11.6117626 34.80232101 11.61146014 31.62548828 11.60620117 C27.55194006 11.60040694 23.47884659 11.61733282 19.40537357 11.64054585 C16.2767012 11.65526974 13.14813867 11.65615672 10.01943779 11.65303612 C8.51751238 11.65355006 7.01558094 11.65880139 5.51368904 11.66884804 C3.41393528 11.68116908 1.31507128 11.67444787 -0.78466797 11.6628418 C-1.97998642 11.66347122 -3.17530487 11.66410065 -4.40684509 11.66474915 C-7.33569336 11.29052734 -7.33569336 11.29052734 -9.25294495 9.95866394 C-10.33569336 8.29052734 -10.33569336 8.29052734 -10.21069336 5.22802734 C-8.57538474 -0.26193731 -5.05796924 0.0334212 0 0 Z " fill="#FB7C24" transform="translate(62.335693359375,62.70947265625)"/>
<path d="M0 0 C1.15538773 -0.00671722 2.31077545 -0.01343445 3.50117493 -0.02035522 C7.31096732 -0.03931319 11.12058333 -0.04325833 14.93041992 -0.04541016 C16.9150335 -0.05021344 18.89964712 -0.05502047 20.8842594 -0.06033099 C27.12174581 -0.07658192 33.35917454 -0.08150298 39.59667969 -0.08007812 C46.00933984 -0.0788776 52.42166295 -0.09996895 58.83423787 -0.13156545 C64.35892166 -0.15780685 69.8834959 -0.16844214 75.40824145 -0.16716731 C78.69947687 -0.16665995 81.99034698 -0.17408612 85.28153419 -0.19352341 C88.95750222 -0.2132009 92.63261077 -0.20733735 96.30859375 -0.1953125 C97.3837323 -0.20655151 98.45887085 -0.21779053 99.56658936 -0.22937012 C109.27265368 -0.14901719 117.40188737 2.34402604 124.34838867 9.29052734 C126.34838867 11.85302734 126.34838867 11.85302734 127.34838867 14.29052734 C126.53588867 16.60302734 126.53588867 16.60302734 125.34838867 18.29052734 C125.34838867 17.63052734 125.34838867 16.97052734 125.34838867 16.29052734 C124.35838867 15.79552734 124.35838867 15.79552734 123.34838867 15.29052734 C122.34838867 13.62386068 121.34838867 11.95719401 120.34838867 10.29052734 C119.35838867 9.79552734 119.35838867 9.79552734 118.34838867 9.29052734 C118.34838867 9.95052734 118.34838867 10.61052734 118.34838867 11.29052734 C116.36838867 12.28052734 114.38838867 13.27052734 112.34838867 14.29052734 C112.34838867 11.29052734 112.34838867 11.29052734 114.34838867 8.29052734 C114.01838867 6.97052734 113.68838867 5.65052734 113.34838867 4.29052734 C110.37838867 5.28052734 107.40838867 6.27052734 104.34838867 7.29052734 C104.34838867 5.64052734 104.34838867 3.99052734 104.34838867 2.29052734 C103.57273056 2.45351318 102.79707245 2.61649902 101.99790955 2.78442383 C97.29339885 3.43682985 92.69930781 3.41349989 87.95605469 3.38818359 C86.92279053 3.38672333 85.88952637 3.38526306 84.82495117 3.38375854 C82.58729637 3.3799609 80.34964456 3.37385315 78.11200142 3.36569214 C74.56847152 3.35290529 71.02497914 3.34640683 67.48143005 3.34155273 C58.68108179 3.32819532 49.8807693 3.30398985 41.08044434 3.28015137 C33.64108925 3.26041076 26.20174746 3.244774 18.76237297 3.23458862 C15.27535996 3.22811655 11.78840183 3.2156083 8.30140686 3.20288086 C6.15764412 3.19924725 4.01388087 3.19589565 1.87011719 3.19287109 C0.90418137 3.18770477 -0.06175446 3.18253845 -1.05696106 3.17721558 C-6.03867163 3.17682591 -10.74094599 3.44642403 -15.65161133 4.29052734 C-16.79629883 4.44521484 -16.79629883 4.44521484 -17.96411133 4.60302734 C-20.35991234 5.57909442 -20.55821768 6.9751055 -21.65161133 9.29052734 C-22.47661133 10.01240234 -23.30161133 10.73427734 -24.15161133 11.47802734 C-27.07979751 14.7722368 -27.57876158 17.05707137 -28.29223633 21.30224609 C-28.65161133 23.29052734 -28.65161133 23.29052734 -29.65161133 25.29052734 C-29.75612353 26.9120525 -29.79815216 28.53778041 -29.80982971 30.16262817 C-29.81961853 31.1919043 -29.82940735 32.22118042 -29.8394928 33.28164673 C-29.84524826 34.41524628 -29.85100372 35.54884583 -29.85693359 36.71679688 C-29.86683319 37.90702454 -29.87673279 39.0972522 -29.88693237 40.32354736 C-29.91315338 43.59190706 -29.93500172 46.86026147 -29.95493436 50.12866449 C-29.97677943 53.54266158 -30.00417534 56.95661393 -30.0309906 60.37057495 C-30.08093753 66.83743952 -30.12586892 73.30432889 -30.16901296 79.77124202 C-30.21836827 87.13272558 -30.27329271 94.49416425 -30.32869256 101.85560441 C-30.4425433 117.0005369 -30.54937559 132.14551166 -30.65161133 147.29052734 C-37.20672865 137.45785137 -33.76584946 117.48812589 -33.70629883 106.09130859 C-33.70058994 104.89109762 -33.69488106 103.69088665 -33.68899918 102.45430565 C-33.65762911 96.11441841 -33.61879432 89.77462359 -33.57446289 83.43481445 C-33.53054816 76.90853553 -33.51486399 70.38249787 -33.50523186 63.8560915 C-33.49234898 58.81233867 -33.45763698 53.76890123 -33.41711807 48.72530174 C-33.40167892 46.31931607 -33.39452982 43.91326169 -33.3960228 41.50722694 C-33.39620293 38.14051351 -33.3651846 34.77540212 -33.3269043 31.40893555 C-33.33748619 29.9366021 -33.33748619 29.9366021 -33.34828186 28.43452454 C-33.22517467 21.60009355 -31.69654955 15.91220597 -27.65161133 10.29052734 C-26.66161133 9.96052734 -25.67161133 9.63052734 -24.65161133 9.29052734 C-24.32161133 8.30052734 -23.99161133 7.31052734 -23.65161133 6.29052734 C-22.99161133 6.29052734 -22.33161133 6.29052734 -21.65161133 6.29052734 C-21.65161133 5.63052734 -21.65161133 4.97052734 -21.65161133 4.29052734 C-20.66161133 4.29052734 -19.67161133 4.29052734 -18.65161133 4.29052734 C-18.65161133 3.63052734 -18.65161133 2.97052734 -18.65161133 2.29052734 C-12.39895181 0.07565581 -6.59388262 -0.00552761 0 0 Z " fill="#EC8F55" transform="translate(39.651611328125,14.70947265625)"/>
<path d="M0 0 C0.8510582 -0.00960754 1.70211639 -0.01921509 2.57896423 -0.02911377 C3.49980301 -0.03336365 4.42064178 -0.03761353 5.36938477 -0.04199219 C6.31386978 -0.04769226 7.2583548 -0.05339233 8.23146057 -0.05926514 C10.2312813 -0.06872011 12.23111765 -0.07525109 14.23095703 -0.07910156 C17.29495278 -0.08881697 20.35828064 -0.11983963 23.42211914 -0.15136719 C25.36287036 -0.15789614 27.30362638 -0.16314703 29.24438477 -0.16699219 C30.16319931 -0.17933899 31.08201385 -0.19168579 32.02867126 -0.20440674 C32.88288162 -0.20140564 33.73709198 -0.19840454 34.6171875 -0.1953125 C35.36838364 -0.19895813 36.11957977 -0.20260376 36.89353943 -0.20635986 C39.43326374 0.26507811 40.31961216 1.13106759 41.87329102 3.16113281 C42.18579102 5.72363281 42.18579102 5.72363281 41.87329102 8.16113281 C37.87251784 12.16190599 32.45538963 11.35109175 27.09204102 11.39941406 C26.24154175 11.40748581 25.39104248 11.41555756 24.51477051 11.4238739 C22.71942159 11.43767937 20.92404681 11.44841728 19.12866211 11.45629883 C17.29166992 11.46785531 15.45471226 11.48836458 13.61791992 11.51782227 C10.96322828 11.56039437 8.30953112 11.5766496 5.65454102 11.58691406 C4.42471497 11.61317619 4.42471497 11.61317619 3.17004395 11.63996887 C-0.47540237 11.62607485 -2.67647631 11.48294255 -5.68334961 9.33374023 C-7.12670898 7.16113281 -7.12670898 7.16113281 -7.00170898 3.97363281 C-6.71295898 3.04550781 -6.42420898 2.11738281 -6.12670898 1.16113281 C-3.84284095 0.0191988 -2.53863806 0.02309943 0 0 Z " fill="#FC7720" transform="translate(59.126708984375,85.8388671875)"/>
<path d="M0 0 C3.09308049 3.09308049 3.12720559 5.80029793 3.14717102 9.97648621 C3.15432632 11.00398987 3.16148163 12.03149353 3.16885376 13.09013367 C3.17288712 14.78031364 3.17288712 14.78031364 3.17700195 16.50463867 C3.18357315 17.69191559 3.19014435 18.8791925 3.19691467 20.10244751 C3.21666361 24.04094804 3.22831687 27.97943525 3.23828125 31.91796875 C3.24232995 33.27581617 3.24644691 34.63366338 3.25063133 35.99151039 C3.26968046 42.3731156 3.28391061 48.75470929 3.2922433 55.13633746 C3.30200726 62.49191926 3.32830558 69.84719946 3.36874419 77.20267504 C3.39895763 82.89453574 3.41371721 88.58631026 3.41702431 94.27824956 C3.41936938 97.67455486 3.42825768 101.07053787 3.45348549 104.46675682 C3.47783241 108.26087807 3.47691927 112.05421322 3.4699707 115.84838867 C3.48278076 116.96505417 3.49559082 118.08171967 3.50878906 119.23222351 C3.46401773 125.94811773 2.50312274 130.23941959 -1 136 C-1.33 136 -1.66 136 -2 136 C-2 134.35 -2 132.7 -2 131 C-2.66 130.67 -3.32 130.34 -4 130 C-2.68 130 -1.36 130 0 130 C0 87.1 0 44.2 0 0 Z " fill="#F1A165" transform="translate(167,31)"/>
<path d="M0 0 C1.30823227 -0.0127597 2.61646454 -0.02551941 3.96434021 -0.03866577 C5.39427544 -0.04172306 6.82421264 -0.04395102 8.25415039 -0.04541016 C9.72001781 -0.05183692 11.18588394 -0.05856519 12.65174866 -0.06558228 C15.7242429 -0.07755746 18.79662469 -0.08126282 21.86914062 -0.08007812 C25.80479893 -0.07987482 29.73973603 -0.10718665 33.67522335 -0.14162254 C36.70271614 -0.16386721 39.73003463 -0.16791645 42.75760078 -0.16685867 C44.20847626 -0.16921794 45.6593563 -0.17805992 47.11015129 -0.19352341 C49.13974581 -0.21313192 51.16955185 -0.20483607 53.19921875 -0.1953125 C54.3537706 -0.19816254 55.50832245 -0.20101257 56.69786072 -0.20394897 C60.29424827 0.3955322 61.50885561 1.39459887 63.66430664 4.29052734 C63.5028046 7.6820703 63.08133907 8.87349492 60.66430664 11.29052734 C57.84225464 11.53103638 57.84225464 11.53103638 54.19506836 11.51757812 C53.53153351 11.51787018 52.86799866 11.51816223 52.18435669 11.51846313 C49.98743692 11.5170679 47.79085478 11.50149802 45.59399414 11.48583984 C44.07227768 11.48211039 42.55055883 11.4792631 41.02883911 11.4772644 C37.02074572 11.46962258 33.01279694 11.44996947 29.00476074 11.42785645 C24.91603553 11.40740978 20.82728698 11.39826522 16.73852539 11.38818359 C8.7137194 11.36672401 0.689031 11.33258155 -7.33569336 11.29052734 C-7.33569336 10.63052734 -7.33569336 9.97052734 -7.33569336 9.29052734 C15.10430664 8.96052734 37.54430664 8.63052734 60.66430664 8.29052734 C60.16930664 5.32052734 60.16930664 5.32052734 59.66430664 2.29052734 C37.55430664 2.29052734 15.44430664 2.29052734 -7.33569336 2.29052734 C-7.66569336 4.27052734 -7.99569336 6.25052734 -8.33569336 8.29052734 C-8.99569336 8.29052734 -9.65569336 8.29052734 -10.33569336 8.29052734 C-10.02319336 5.41552734 -10.02319336 5.41552734 -9.33569336 2.29052734 C-5.778842 -0.08070689 -4.22147419 0.02789395 0 0 Z " fill="#F4C29C" transform="translate(62.335693359375,62.70947265625)"/>
<path d="M0 0 C1.98 0.495 1.98 0.495 4 1 C-4.8607099 6.77872385 -13.92927179 7.30078253 -24.30541992 7.25878906 C-25.38803604 7.2622937 -26.47065216 7.26579834 -27.58607483 7.26940918 C-31.13427299 7.27815099 -34.68226886 7.27240531 -38.23046875 7.265625 C-40.71047504 7.26697352 -43.19048106 7.26891562 -45.67048645 7.27142334 C-50.85416189 7.27436412 -56.03776817 7.2701095 -61.22143555 7.26074219 C-67.85909349 7.24933045 -74.49658999 7.25592476 -81.13424206 7.26788712 C-86.24979364 7.27511867 -91.36530702 7.27281211 -96.48085976 7.26763153 C-98.92843965 7.26629955 -101.37602305 7.26792689 -103.82359886 7.27259064 C-107.24341387 7.27767905 -110.66296805 7.26991362 -114.08276367 7.25878906 C-115.08916901 7.26283752 -116.09557434 7.26688599 -117.13247681 7.27105713 C-122.4829245 7.23887277 -126.93921754 6.76703551 -132 5 C-128.75005971 4.02910032 -125.83692655 3.88425421 -122.4519043 3.90234375 C-121.32648727 3.90560165 -120.20107025 3.90885956 -119.04154968 3.91221619 C-117.81483047 3.92055984 -116.58811127 3.9289035 -115.32421875 3.9375 C-113.34643514 3.94393283 -111.36865144 3.9503537 -109.39086628 3.95629025 C-107.27782084 3.96327523 -105.16479306 3.97240195 -103.05175781 3.98196411 C-95.6946923 4.0140136 -88.3375973 4.02345625 -80.98046875 4.02734375 C-80.2332896 4.02777113 -79.48611046 4.02819851 -78.71628952 4.02863884 C-62.97431678 4.03309702 -47.23951984 3.84551959 -31.5 3.5625 C-29.70542862 3.53289185 -29.70542862 3.53289185 -27.87460327 3.50268555 C-24.53084519 3.44639791 -21.18731762 3.38296376 -17.84375 3.31640625 C-16.85212357 3.29969376 -15.86049713 3.28298126 -14.83882141 3.26576233 C-13.94519394 3.24581711 -13.05156647 3.22587189 -12.13085938 3.20532227 C-10.96266663 3.18200584 -10.96266663 3.18200584 -9.77087402 3.15821838 C-7.97476371 3.1885556 -7.97476371 3.1885556 -7 2 C-4.66702567 1.95907063 -2.33294775 1.95758277 0 2 C0 1.34 0 0.68 0 0 Z " fill="#E5AD98" transform="translate(156,173)"/>
<path d="M0 0 C6.81260187 7.78583071 5.23559316 21.45223906 5.046875 31.046875 C5.02571491 32.4716902 5.00524065 33.89651574 4.9854126 35.3213501 C4.94172891 38.2864984 4.89045691 41.25138645 4.83349609 44.21630859 C4.76131611 48.00080614 4.70741433 51.78530339 4.65903854 55.57017136 C4.6196776 58.50436293 4.57113211 61.43834794 4.51981354 64.3723526 C4.49640125 65.76764933 4.47567517 67.16299402 4.45778656 68.5583725 C4.26439497 82.80431229 4.26439497 82.80431229 2 88 C0.515 88.495 0.515 88.495 -1 89 C-0.83832336 88.15996933 -0.67664673 87.31993866 -0.5100708 86.45445251 C0.02508966 82.83008038 0.14131995 79.39187421 0.16113281 75.72875977 C0.16609772 75.027117 0.17106262 74.32547424 0.17617798 73.60256958 C0.19069349 71.29883824 0.19758246 68.99517566 0.203125 66.69140625 C0.20595238 65.90026869 0.20877975 65.10913113 0.21169281 64.2940197 C0.22663967 60.11031642 0.23589853 55.92664724 0.24023438 51.74291992 C0.24572357 47.43450885 0.26977379 43.12641307 0.29820633 38.81810093 C0.31687515 35.49199013 0.32204048 32.16595482 0.32357025 28.83979607 C0.32658589 27.25185351 0.33457746 25.66391193 0.34775543 24.07602119 C0.36491147 21.85065081 0.36291333 19.6260454 0.35644531 17.40063477 C0.36009094 16.13743912 0.36373657 14.87424347 0.36749268 13.57276917 C-0.12754826 8.75997396 -1.35286582 4.65059454 -4.859375 1.13671875 C-7.33194012 -0.17626747 -9.493751 -0.71603636 -12.25 -1.1875 C-13.14203125 -1.34605469 -14.0340625 -1.50460938 -14.953125 -1.66796875 C-15.62859375 -1.77753906 -16.3040625 -1.88710938 -17 -2 C-17 -2.33 -17 -2.66 -17 -3 C-10.29121 -4.40416535 -5.88904293 -3.58463483 0 0 Z M-1 -2 C1 -1 1 -1 1 -1 Z " fill="#F1853C" transform="translate(143,43)"/>
<path d="M0 0 C0.99 0 1.98 0 3 0 C2.99777939 1.13117249 2.99555878 2.26234497 2.99327087 3.42779541 C2.97301099 14.08103704 2.9580141 24.73427477 2.94818783 35.38753128 C2.94296626 40.8646449 2.93588173 46.34174298 2.92456055 51.81884766 C2.91370596 57.10320946 2.90771768 62.38755631 2.90512276 67.67192841 C2.90327316 69.6893716 2.89966144 71.70681396 2.89426994 73.72425079 C2.88702544 76.54697955 2.88601051 79.36964627 2.88647461 82.19238281 C2.88287933 83.02891891 2.87928406 83.86545502 2.87557983 84.7273407 C2.83983741 88.97541454 2.83983741 88.97541454 3.63251591 93.12098312 C3.75378566 93.74105869 3.87505541 94.36113426 4 95 C3.01 95.99 3.01 95.99 2 97 C-1.11930148 91.84508729 -1.42212515 87.90644432 -1.35644531 82.07299805 C-1.35848969 81.19590683 -1.36053406 80.31881561 -1.36264038 79.41514587 C-1.36563666 76.53045469 -1.34721148 73.6463415 -1.328125 70.76171875 C-1.3250663 68.75486899 -1.32319102 66.74801711 -1.32244873 64.74116516 C-1.31785353 60.54407578 -1.30345304 56.34717911 -1.28125 52.15014648 C-1.25287704 46.75836545 -1.24202857 41.3667355 -1.2375679 35.97488689 C-1.23342215 31.83578468 -1.22361325 27.69671327 -1.21169281 23.55762672 C-1.20598014 21.56841085 -1.20122475 19.57919199 -1.19742584 17.58997154 C-1.19058872 14.8199371 -1.176971 12.05002502 -1.16113281 9.2800293 C-1.16001495 8.45148437 -1.15889709 7.62293945 -1.15774536 6.76928711 C-1.11469268 1.11469268 -1.11469268 1.11469268 0 0 Z " fill="#EFA470" transform="translate(32,48)"/>
<path d="M0 0 C0.99937088 -0.00852997 1.99874176 -0.01705994 3.02839661 -0.02584839 C4.67178513 -0.02448883 4.67178513 -0.02448883 6.34837341 -0.02310181 C7.50317703 -0.02981903 8.65798065 -0.03653625 9.84777832 -0.04345703 C13.6793189 -0.06250931 17.51068484 -0.06636552 21.3422699 -0.06851196 C23.33164049 -0.07331326 25.32101111 -0.07811793 27.3103804 -0.08343279 C33.57273213 -0.09972523 39.83502636 -0.10460137 46.09739685 -0.10317993 C52.53951131 -0.10198157 58.98128907 -0.12301992 65.42331845 -0.15466726 C70.96490655 -0.18091277 76.50638538 -0.19154362 82.04803509 -0.19026911 C85.35274338 -0.18976143 88.65708775 -0.19719951 91.96174812 -0.21662521 C95.65730943 -0.23630623 99.35201594 -0.23043669 103.04759216 -0.21841431 C104.66972626 -0.23527283 104.66972626 -0.23527283 106.32463074 -0.25247192 C116.05067119 -0.17241034 124.18844977 2.30501166 131.15086365 9.26742554 C133.15086365 11.82992554 133.15086365 11.82992554 134.15086365 14.26742554 C133.33836365 16.57992554 133.33836365 16.57992554 132.15086365 18.26742554 C132.15086365 17.60742554 132.15086365 16.94742554 132.15086365 16.26742554 C131.16086365 15.77242554 131.16086365 15.77242554 130.15086365 15.26742554 C129.15086365 13.60075887 128.15086365 11.9340922 127.15086365 10.26742554 C126.16086365 9.77242554 126.16086365 9.77242554 125.15086365 9.26742554 C125.15086365 9.92742554 125.15086365 10.58742554 125.15086365 11.26742554 C123.17086365 12.25742554 121.19086365 13.24742554 119.15086365 14.26742554 C119.15086365 11.26742554 119.15086365 11.26742554 121.15086365 8.26742554 C120.82086365 6.94742554 120.49086365 5.62742554 120.15086365 4.26742554 C117.18086365 5.25742554 114.21086365 6.24742554 111.15086365 7.26742554 C111.15086365 5.61742554 111.15086365 3.96742554 111.15086365 2.26742554 C110.41118347 2.44136841 109.6715033 2.61531128 108.90940857 2.79452515 C103.57256099 3.46600769 98.3771591 3.09060057 93.0141449 2.83383179 C80.3212886 2.31368677 67.64684869 2.16480139 54.9438324 2.16976929 C54.02609165 2.17005756 53.10835091 2.17034584 52.16279984 2.17064285 C46.51531065 2.17412291 40.86785586 2.18535517 35.22038269 2.19876099 C30.34500069 2.20918928 25.46961307 2.21359935 20.59422302 2.21859741 C11.11308905 2.22916315 1.63197916 2.2461151 -7.84913635 2.26742554 C-4.61299173 0.10999579 -3.73342381 0.01439685 0 0 Z " fill="#F9CFA3" transform="translate(32.84913635253906,14.732574462890625)"/>
<path d="M0 0 C0.99 0 1.98 0 3 0 C2.93039063 0.59167969 2.86078125 1.18335938 2.7890625 1.79296875 C2.47804333 6.3323676 2.4637083 8.32257891 5.375 12 C8.94323215 14.4986182 12.66724824 14.68114043 16.92578125 14.859375 C19 15 19 15 20 16 C21.50316769 16.1224331 23.01188167 16.17776285 24.51977539 16.20532227 C25.48069595 16.22526749 26.44161652 16.24521271 27.43165588 16.26576233 C28.476436 16.28247482 29.52121613 16.29918732 30.59765625 16.31640625 C31.66165146 16.33718735 32.72564667 16.35796844 33.82188416 16.37937927 C37.2353544 16.44499254 40.64890429 16.50381423 44.0625 16.5625 C46.37045109 16.60567403 48.678394 16.64928794 50.98632812 16.69335938 C56.65746682 16.80068584 62.32868552 16.90242992 68 17 C68 17.33 68 17.66 68 18 C46.55 18 25.1 18 3 18 C3.99 17.34 4.98 16.68 6 16 C4.36290685 14.31135412 4.36290685 14.31135412 2 13 C1.01 13.165 0.02 13.33 -1 13.5 C-4 14 -4 14 -6.375 12.5625 C-6.91125 12.046875 -7.4475 11.53125 -8 11 C-7 9 -7 9 -3.9375 7.875 C-2.4834375 7.441875 -2.4834375 7.441875 -1 7 C-1.33 6.01 -1.66 5.02 -2 4 C-1.0625 1.8125 -1.0625 1.8125 0 0 Z M20 14 C20.99 14.495 20.99 14.495 22 15 C21.01 15.495 21.01 15.495 20 16 C20 15.34 20 14.68 20 14 Z " fill="#F66016" transform="translate(25,160)"/>
<path d="M0 0 C1.29111191 0.0001133 1.29111191 0.0001133 2.60830688 0.00022888 C3.53855682 0.00539017 4.46880676 0.01055145 5.42724609 0.01586914 C6.37884613 0.01728409 7.33044617 0.01869904 8.31088257 0.02015686 C11.35751456 0.02576527 14.40407372 0.0383192 17.45068359 0.05102539 C19.51318253 0.05603931 21.57568262 0.0606024 23.63818359 0.06469727 C28.70071176 0.07573744 33.76318532 0.09300772 38.82568359 0.11352539 C38.82568359 0.44352539 38.82568359 0.77352539 38.82568359 1.11352539 C36.97837646 1.14325439 36.97837646 1.14325439 35.09375 1.17358398 C30.53510699 1.24951721 25.97678833 1.33825302 21.41845703 1.4309082 C19.44358716 1.46924888 17.46864623 1.50409269 15.49365234 1.53540039 C12.65875814 1.58094086 9.82435529 1.63895254 6.98974609 1.69946289 C6.10324371 1.7110141 5.21674133 1.72256531 4.30337524 1.73446655 C3.48267548 1.75433624 2.66197571 1.77420593 1.81640625 1.79467773 C1.09248688 1.8080014 0.3685675 1.82132507 -0.37728882 1.83505249 C-2.42585136 1.9714046 -2.42585136 1.9714046 -4.17431641 4.11352539 C-4.17431641 5.76352539 -4.17431641 7.41352539 -4.17431641 9.11352539 C10.01568359 8.78352539 24.20568359 8.45352539 38.82568359 8.11352539 C39.48568359 6.46352539 40.14568359 4.81352539 40.82568359 3.11352539 C41.15568359 3.11352539 41.48568359 3.11352539 41.82568359 3.11352539 C41.95068359 5.48852539 41.95068359 5.48852539 41.82568359 8.11352539 C37.82491042 12.11429856 32.40778221 11.30348433 27.04443359 11.35180664 C26.19393433 11.35987839 25.34343506 11.36795013 24.46716309 11.37626648 C22.67181416 11.39007195 20.87643939 11.40080986 19.08105469 11.40869141 C17.2440625 11.42024789 15.40710484 11.44075716 13.5703125 11.47021484 C10.91562086 11.51278695 8.2619237 11.52904218 5.60693359 11.53930664 C4.37710754 11.56556877 4.37710754 11.56556877 3.12243652 11.59236145 C-0.52300979 11.57846743 -2.72408373 11.43533513 -5.73095703 9.28613281 C-7.17431641 7.11352539 -7.17431641 7.11352539 -7.04931641 3.92602539 C-6.76056641 2.99790039 -6.47181641 2.06977539 -6.17431641 1.11352539 C-3.86611133 -0.04057715 -2.56647364 -0.00750431 0 0 Z " fill="#FCCFA9" transform="translate(59.17431640625,85.886474609375)"/>
<path d="M0 0 C0.33 0 0.66 0 1 0 C1.04241723 2.33294775 1.04092937 4.66702567 1 7 C0 8 0 8 -2.70179749 8.12025452 C-3.90758957 8.11803391 -5.11338165 8.11581329 -6.35571289 8.11352539 C-7.01910172 8.11367142 -7.68249054 8.11381744 -8.36598206 8.1139679 C-10.56823956 8.11326881 -12.77041345 8.10547665 -14.97265625 8.09765625 C-16.49580336 8.09579206 -18.01895107 8.09436816 -19.542099 8.09336853 C-23.55837651 8.08954346 -27.57461808 8.07971328 -31.59088135 8.06866455 C-35.68623366 8.05845019 -39.78159176 8.05387086 -43.87695312 8.04882812 C-51.91798528 8.038091 -59.95898817 8.02101472 -68 8 C-68 7.34 -68 6.68 -68 6 C-45.56 5.67 -23.12 5.34 0 5 C0 3.35 0 1.7 0 0 Z " fill="#EBA974" transform="translate(123,66)"/>
<path d="M0 0 C2.56746564 3.58917706 2.26909545 7.47076114 2.22705078 11.70605469 C2.22734283 12.47717087 2.22763489 13.24828705 2.22793579 14.04277039 C2.22654493 16.5859206 2.21099527 19.1287761 2.1953125 21.671875 C2.1915815 23.43735596 2.18873494 25.20283899 2.18673706 26.96832275 C2.17910743 31.61095922 2.15946467 36.25347019 2.1373291 40.89605713 C2.11685626 45.63511457 2.10773226 50.37419232 2.09765625 55.11328125 C2.07621817 64.40890925 2.04209027 73.70444418 2 83 C1.67 83 1.34 83 1 83 C0.99120064 81.65149208 0.99120064 81.65149208 0.98222351 80.27574158 C0.92422169 71.78653303 0.85210202 63.29758548 0.76428509 54.80863094 C0.71963543 50.44478657 0.68036754 46.08103439 0.65356445 41.71704102 C0.62747734 37.50231083 0.5870371 33.28793645 0.53681374 29.0734272 C0.52018148 27.46880088 0.50864458 25.86411307 0.50238609 24.25941277 C0.49270498 22.00451594 0.46459994 19.75052192 0.43237305 17.49584961 C0.42126999 16.21455673 0.41016693 14.93326385 0.39872742 13.61314392 C-0.13318712 8.7930997 -1.3439854 4.65949362 -4.859375 1.13671875 C-7.33194012 -0.17626747 -9.493751 -0.71603636 -12.25 -1.1875 C-13.14203125 -1.34605469 -14.0340625 -1.50460938 -14.953125 -1.66796875 C-15.62859375 -1.77753906 -16.3040625 -1.88710938 -17 -2 C-17 -2.33 -17 -2.66 -17 -3 C-10.26957181 -4.40869427 -5.92501347 -3.55500808 0 0 Z M-1 -2 C1 -1 1 -1 1 -1 Z " fill="#FEC397" transform="translate(143,43)"/>
<path d="M0 0 C0.78145386 -0.00014603 1.56290771 -0.00029205 2.36804199 -0.0004425 C4.92182299 0.00024784 7.4755288 0.00799864 10.02929688 0.01586914 C11.81148234 0.01773645 13.59366833 0.01915887 15.37585449 0.02015686 C20.04469239 0.02395743 24.71349871 0.03376648 29.38232422 0.04486084 C34.15526909 0.05512808 38.92821912 0.05966582 43.70117188 0.06469727 C53.05014401 0.07539116 62.39909281 0.09243774 71.74804688 0.11352539 C71.74804688 0.44352539 71.74804688 0.77352539 71.74804688 1.11352539 C70.30557838 1.12898659 70.30557838 1.12898659 68.83396912 1.14476013 C59.75622834 1.24266157 50.67855355 1.34541084 41.60092068 1.45286465 C36.93440967 1.50794841 32.26789225 1.56134448 27.60131836 1.61083984 C23.09495393 1.65869879 18.58866169 1.71104813 14.08238411 1.76646614 C12.36608753 1.78679253 10.64977123 1.80552104 8.93343925 1.82259941 C6.52318096 1.84685994 4.11305637 1.8768829 1.70288086 1.90820312 C0.99869019 1.91395859 0.29449951 1.91971405 -0.43103027 1.92564392 C-4.78064849 1.98958133 -8.95932727 2.42244728 -13.25195312 3.11352539 C-14.39664062 3.26821289 -14.39664062 3.26821289 -15.56445312 3.42602539 C-17.96025414 4.40209247 -18.15855948 5.79810355 -19.25195312 8.11352539 C-21.75195313 10.86352539 -21.75195313 10.86352539 -24.25195312 13.11352539 C-24.91195313 13.11352539 -25.57195313 13.11352539 -26.25195312 13.11352539 C-25.59195312 11.46352539 -24.93195312 9.81352539 -24.25195312 8.11352539 C-23.59195312 8.11352539 -22.93195312 8.11352539 -22.25195312 8.11352539 C-21.92195313 7.12352539 -21.59195312 6.13352539 -21.25195312 5.11352539 C-20.59195312 5.11352539 -19.93195312 5.11352539 -19.25195312 5.11352539 C-19.25195312 4.45352539 -19.25195312 3.79352539 -19.25195312 3.11352539 C-18.26195312 3.11352539 -17.27195312 3.11352539 -16.25195312 3.11352539 C-16.25195312 2.45352539 -16.25195312 1.79352539 -16.25195312 1.11352539 C-10.78612228 0.34029407 -5.51546639 -0.02756807 0 0 Z " fill="#E78B43" transform="translate(37.251953125,15.886474609375)"/>
<path d="M0 0 C2.9375 1.1875 2.9375 1.1875 3.9375 3.1875 C4.25 6.125 4.25 6.125 3.9375 9.1875 C2.3125 11.125 2.3125 11.125 -0.0625 12.1875 C-3.73543796 11.96712372 -5.43216546 11.81783454 -8.0625 9.1875 C-8.62229644 3.92541349 -8.62229644 3.92541349 -6.6875 1.375 C-3.90604043 -0.65760507 -3.51327965 -0.9320946 0 0 Z " fill="#F3A876" transform="translate(25.0625,184.8125)"/>
<path d="M0 0 C1.32 0.33 2.64 0.66 4 1 C-6.60716138 7.91771394 -17.77995463 7.25517496 -30 7 C-30 6.67 -30 6.34 -30 6 C-40.89 5.67 -51.78 5.34 -63 5 C-63 4.67 -63 4.34 -63 4 C-62.31317642 3.98969254 -61.62635284 3.97938507 -60.91871643 3.96876526 C-53.79784143 3.86094405 -46.67709926 3.74632717 -39.55639648 3.62768555 C-36.89561735 3.5842582 -34.23480893 3.5425891 -31.57397461 3.50268555 C-27.75886185 3.44517128 -23.94389758 3.38142332 -20.12890625 3.31640625 C-18.33206139 3.29133751 -18.33206139 3.29133751 -16.49891663 3.26576233 C-14.84731789 3.2358445 -14.84731789 3.2358445 -13.16235352 3.20532227 C-12.18750504 3.18977798 -11.21265656 3.1742337 -10.20826721 3.15821838 C-8.02581432 3.24406945 -8.02581432 3.24406945 -7 2 C-4.66702567 1.95907063 -2.33294775 1.95758277 0 2 C0 1.34 0 0.68 0 0 Z " fill="#F09361" transform="translate(156,173)"/>
<path d="M0 0 C0.91307373 3.08162384 1.41112802 5.79320141 1 9 C-0.8125 10.8125 -0.8125 10.8125 -3 12 C-3.99 12 -4.98 12 -6 12 C-6 11.34 -6 10.68 -6 10 C-6.51046875 10.35835937 -7.0209375 10.71671875 -7.546875 11.0859375 C-11.11256385 12.41455405 -13.59159364 11.50572746 -17.25 10.625 C-19.14492188 10.18027344 -19.14492188 10.18027344 -21.078125 9.7265625 C-22.04234375 9.48679688 -23.0065625 9.24703125 -24 9 C-24.33 7.68 -24.66 6.36 -25 5 C-23.824375 5.495 -23.824375 5.495 -22.625 6 C-16.55795725 7.67366697 -11.22473167 8.17304033 -5.5625 5.1875 C-2.66319573 2.71396441 -2.66319573 2.71396441 0 0 Z M2 1 C2.99 1.495 2.99 1.495 4 2 C3.01 2.495 3.01 2.495 2 3 C2 2.34 2 1.68 2 1 Z " fill="#F6651A" transform="translate(63,140)"/>
<path d="M0 0 C5.96313166 -0.02464574 11.92623395 -0.042834 17.8894043 -0.05493164 C19.91968298 -0.05997278 21.94995802 -0.06680557 23.98022461 -0.07543945 C26.89177347 -0.08751467 29.8032745 -0.09323034 32.71484375 -0.09765625 C33.6283812 -0.10281754 34.54191864 -0.10797882 35.48313904 -0.11329651 C37.65575427 -0.11349168 39.82827296 -0.06211805 42 0 C43 1 43 1 43.1875 3.4375 C43 6 43 6 41 8 C39.12704468 8.24050903 39.12704468 8.24050903 36.82568359 8.22705078 C35.53457169 8.22682419 35.53457169 8.22682419 34.21737671 8.22659302 C33.28712677 8.21627045 32.35687683 8.20594788 31.3984375 8.1953125 C30.44683746 8.1924826 29.49523743 8.18965271 28.51480103 8.18673706 C25.46807408 8.17551989 22.42163846 8.15041263 19.375 8.125 C17.31250424 8.11497218 15.25000388 8.10584599 13.1875 8.09765625 C8.12488733 8.07557554 3.0624931 8.0410353 -2 8 C-2 7.67 -2 7.34 -2 7 C12.19 6.67 26.38 6.34 41 6 C40.505 4.02 40.505 4.02 40 2 C20.2 1.505 20.2 1.505 0 1 C0 0.67 0 0.34 0 0 Z " fill="#E67535" transform="translate(57,87)"/>
<path d="M0 0 C2.8277772 4.2416658 2.66437928 8.01715536 2 13 C0.91077993 15.41049138 -0.27684275 16.95375076 -2 19 C-5.96 18.67 -9.92 18.34 -14 18 C-14.33 17.01 -14.66 16.02 -15 15 C-13.4221875 15.309375 -13.4221875 15.309375 -11.8125 15.625 C-7.96528895 16.0034142 -6.30255513 15.88717436 -3 14 C-0.67420899 10.51131349 -0.58134543 9.10281481 -1 5 C-2.42486034 2.22527198 -3.34108333 1.25624537 -6.25 0.125 C-9.80561283 -0.03661876 -12.64460662 0.88153554 -16 2 C-16 1.01 -16 0.02 -16 -1 C-10.51119087 -2.54372757 -5.37446151 -1.79148717 0 0 Z " fill="#F29567" transform="translate(47,157)"/>
<path d="M0 0 C2.31 0 4.62 0 7 0 C7 0.66 7 1.32 7 2 C9.97 2.33 12.94 2.66 16 3 C16 3.99 16 4.98 16 6 C15.34 6 14.68 6 14 6 C14.95865509 8.33075929 14.95865509 8.33075929 18 10 C17.67 10.66 17.34 11.32 17 12 C16.34 12 15.68 12 15 12 C15 11.34 15 10.68 15 10 C14.01 10 13.02 10 12 10 C12 9.34 12 8.68 12 8 C11.01 8 10.02 8 9 8 C9 7.34 9 6.68 9 6 C8.01 6.33 7.02 6.66 6 7 C5.34 6.67 4.68 6.34 4 6 C4 5.34 4 4.68 4 4 C3.01 3.67 2.02 3.34 1 3 C0.67 2.01 0.34 1.02 0 0 Z " fill="#FC6211" transform="translate(32,147)"/>
<path d="M0 0 C0 0.66 0 1.32 0 2 C1.65 2 3.3 2 5 2 C5 2.66 5 3.32 5 4 C5.99 4.33 6.98 4.66 8 5 C3.71 5 -0.58 5 -5 5 C-6.1695164 13.16438376 -6.1695164 13.16438376 -4 21 C-4.66 21.33 -5.32 21.66 -6 22 C-8.34098883 19.53132087 -8.98061596 18.28547398 -9.21484375 14.8359375 C-9.12332031 13.69382813 -9.03179688 12.55171875 -8.9375 11.375 C-8.86402344 10.22773438 -8.79054688 9.08046875 -8.71484375 7.8984375 C-8 5 -8 5 -5.94140625 3.6015625 C-5.30074219 3.40304688 -4.66007812 3.20453125 -4 3 C-4 2.34 -4 1.68 -4 1 C-2 0 -2 0 0 0 Z " fill="#F9631D" transform="translate(36,151)"/>
<path d="M0 0 C0.99 0.33 1.98 0.66 3 1 C3.6875 3.0625 3.6875 3.0625 4 5 C4.99 5 5.98 5 7 5 C7.8971875 6.0209375 7.8971875 6.0209375 8.8125 7.0625 C9.534375 7.701875 10.25625 8.34125 11 9 C11.969375 8.814375 12.93875 8.62875 13.9375 8.4375 C15.4534375 8.2209375 15.4534375 8.2209375 17 8 C19.875 10.4375 19.875 10.4375 22 13 C17.12671371 13.34671602 13.21983175 13.58645757 8.75 11.4375 C5.50763674 8.56358711 2.47923655 5.56939731 0 2 C0 1.34 0 0.68 0 0 Z " fill="#FC6016" transform="translate(10,164)"/>
<path d="M0 0 C0.66 0 1.32 0 2 0 C2 0.66 2 1.32 2 2 C2.886875 2.061875 3.77375 2.12375 4.6875 2.1875 C8.81434716 3.19974553 10.3433707 4.73614114 13 8 C13.9375 10.1875 13.9375 10.1875 14 12 C13.34 12.66 12.68 13.32 12 14 C12 13.34 12 12.68 12 12 C11.34 11.67 10.68 11.34 10 11 C9 9.33333333 8 7.66666667 7 6 C6.34 5.67 5.68 5.34 5 5 C5 5.66 5 6.32 5 7 C3.02 7.99 1.04 8.98 -1 10 C-1 7 -1 7 1 4 C0.69159401 1.84725052 0.69159401 1.84725052 0 0 Z " fill="#FA9236" transform="translate(153,19)"/>
<path d="M0 0 C2.16198746 2.94816472 2.1995248 5.40855357 2 9 C1.67 8.01 1.34 7.02 1 6 C0.34 6 -0.32 6 -1 6 C-1.598125 5.21625 -2.19625 4.4325 -2.8125 3.625 C-6.70331919 -1.04398303 -11.15376338 -1.31220746 -17 -2 C-17 -2.33 -17 -2.66 -17 -3 C-10.26957181 -4.40869427 -5.92501347 -3.55500808 0 0 Z M-1 -2 C1 -1 1 -1 1 -1 Z " fill="#F19C57" transform="translate(143,43)"/>
<path d="M0 0 C0.33 2.64 0.66 5.28 1 8 C-1.31 8 -3.62 8 -6 8 C-6 5.69 -6 3.38 -6 1 C-4 0 -4 0 0 0 Z " fill="#F9741B" transform="translate(25,187)"/>
<path d="M0 0 C1.32 0.33 2.64 0.66 4 1 C3.34 1.66 2.68 2.32 2 3 C1.01 3 0.02 3 -1 3 C-1.226875 3.556875 -1.45375 4.11375 -1.6875 4.6875 C-3.37550036 7.66159588 -5.46676517 9.72008865 -8 12 C-8.66 12 -9.32 12 -10 12 C-9.34 10.35 -8.68 8.7 -8 7 C-7.34 7 -6.68 7 -6 7 C-5.67 6.01 -5.34 5.02 -5 4 C-4.34 4 -3.68 4 -3 4 C-3 3.34 -3 2.68 -3 2 C-2.01 2 -1.02 2 0 2 C0 1.34 0 0.68 0 0 Z " fill="#F4AE79" transform="translate(21,17)"/>
<path d="M0 0 C1.32 0.33 2.64 0.66 4 1 C-2.02818509 5.28670939 -6.71304215 5.474377 -14 5 C-14 4.67 -14 4.34 -14 4 C-9.126739 2.4087311 -5.19209404 1.78807779 0 2 C0 1.34 0 0.68 0 0 Z " fill="#F09563" transform="translate(156,173)"/>
<path d="M0 0 C1.175625 0.4640625 1.175625 0.4640625 2.375 0.9375 C6.89851578 2.26335807 11.31431814 2.64811085 16 3 C14 5 14 5 11.9765625 5.23046875 C11.20054688 5.21628906 10.42453125 5.20210937 9.625 5.1875 C8.85414062 5.18105469 8.08328125 5.17460937 7.2890625 5.16796875 C5.08110656 5.00595151 3.12464668 4.60634894 1 4 C0.67 2.68 0.34 1.36 0 0 Z " fill="#EFA786" transform="translate(38,145)"/>
<path d="M0 0 C-0.33 0.99 -0.66 1.98 -1 3 C-1.99 2.46375 -2.98 1.9275 -4 1.375 C-8.51051539 -0.60815094 -11.44015105 0.48005035 -16 2 C-16 1.01 -16 0.02 -16 -1 C-10.51119087 -2.54372757 -5.37446151 -1.79148717 0 0 Z " fill="#F2A47C" transform="translate(47,157)"/>
<path d="M0 0 C2.78349856 1.0558098 4.00409146 2.00518252 5.875 4.375 C7 7 7 7 6.1875 9.3125 C5.795625 9.869375 5.40375 10.42625 5 11 C5 10.34 5 9.68 5 9 C4.34 8.67 3.68 8.34 3 8 C0.9904432 5.06295544 0 3.60777515 0 0 Z " fill="#F2B275" transform="translate(160,22)"/>
<path d="M0 0 C1.2099988 3.6299964 2.08626011 7.28412445 3 11 C2.01 11.495 2.01 11.495 1 12 C-1.60334924 9.28817788 -1.99456691 8.10866187 -2.1875 4.25 C-2.125625 3.1775 -2.06375 2.105 -2 1 C-1.34 0.67 -0.68 0.34 0 0 Z " fill="#EF8E63" transform="translate(29,161)"/>
<path d="M0 0 C4.39075018 0.35989756 6.38486502 1.6372727 9.8125 4.3125 C8.8225 4.8075 8.8225 4.8075 7.8125 5.3125 C6.8225 4.9825 5.8325 4.6525 4.8125 4.3125 C4.8125 3.6525 4.8125 2.9925 4.8125 2.3125 C3.141875 2.621875 3.141875 2.621875 1.4375 2.9375 C0.24125 3.06125 -0.955 3.185 -2.1875 3.3125 C-2.8475 2.6525 -3.5075 1.9925 -4.1875 1.3125 C-3.1875 0.3125 -3.1875 0.3125 0 0 Z " fill="#F3AC69" transform="translate(150.1875,16.6875)"/>
<path d="M0 0 C0.99 0.33 1.98 0.66 3 1 C3.6875 3.0625 3.6875 3.0625 4 5 C4.99 5 5.98 5 7 5 C7.99 6.98 8.98 8.96 10 11 C6.8510285 9.63088196 4.9521513 8.1247864 2.75 5.5 C2.22921875 4.8915625 1.7084375 4.283125 1.171875 3.65625 C0 2 0 2 0 0 Z " fill="#EF9D78" transform="translate(10,164)"/>
<path d="M0 0 C0 2.83967231 -0.40267181 5.23735711 -1 8 C-3.64 8 -6.28 8 -9 8 C-7.88625 7.13375 -7.88625 7.13375 -6.75 6.25 C-4.33912357 4.27746474 -2.15957299 2.23955718 0 0 Z " fill="#F7AE7F" transform="translate(63,140)"/>
<path d="M0 0 C0.99 0.33 1.98 0.66 3 1 C3 4.3 3 7.6 3 11 C2.34 11 1.68 11 1 11 C0.67 7.37 0.34 3.74 0 0 Z " fill="#EC8150" transform="translate(46,159)"/>
<path d="M0 0 C1.134375 0.020625 2.26875 0.04125 3.4375 0.0625 C3.4375 0.3925 3.4375 0.7225 3.4375 1.0625 C1.7875 1.0625 0.1375 1.0625 -1.5625 1.0625 C-1.5625 2.7125 -1.5625 4.3625 -1.5625 6.0625 C-2.5525 6.3925 -3.5425 6.7225 -4.5625 7.0625 C-4.60504356 5.06295254 -4.60330783 3.06208364 -4.5625 1.0625 C-3.5625 0.0625 -3.5625 0.0625 0 0 Z " fill="#F36C2B" transform="translate(32.5625,154.9375)"/>
<path d="M0 0 C0.33 0.99 0.66 1.98 1 3 C-1 6 -1 6 -2.9453125 6.51171875 C-3.66460937 6.56972656 -4.38390625 6.62773437 -5.125 6.6875 C-7.043125 6.8421875 -7.043125 6.8421875 -9 7 C-8.01 6.34 -7.02 5.68 -6 5 C-3.96864317 3.36898357 -1.99068127 1.68101974 0 0 Z " fill="#F2AD7F" transform="translate(141,132)"/>
<path d="M0 0 C0.33 0.99 0.66 1.98 1 3 C-4.94 2.01 -4.94 2.01 -11 1 C-11 0.67 -11 0.34 -11 0 C-6.98195309 -0.84098656 -3.98196457 -1.05404945 0 0 Z " fill="#F4C596" transform="translate(137,40)"/>
<path d="M0 0 C-0.33 0.66 -0.66 1.32 -1 2 C-5.026591 2.77434442 -8.90386029 3.12412545 -13 3 C-9.46107841 -0.25580786 -4.56810887 -2.28405443 0 0 Z " fill="#F78227" transform="translate(33,18)"/>
<path d="M0 0 C2.64 0.66 5.28 1.32 8 2 C8 2.99 8 3.98 8 5 C5.125 4.75 5.125 4.75 2 4 C0.625 1.9375 0.625 1.9375 0 0 Z " fill="#EC7540" transform="translate(18,172)"/>
<path d="M0 0 C0.33 0.99 0.66 1.98 1 3 C1.66 3 2.32 3 3 3 C3 2.34 3 1.68 3 1 C3.99 1 4.98 1 6 1 C5.67 2.32 5.34 3.64 5 5 C3.35 5.33 1.7 5.66 0 6 C-1.24546405 3.50907189 -0.7767578 2.58919267 0 0 Z " fill="#F28336" transform="translate(54,67)"/>
<path d="M0 0 C1.98 0.495 1.98 0.495 4 1 C3.34 1.66 2.68 2.32 2 3 C2 4.32 2 5.64 2 7 C1.01 6.67 0.02 6.34 -1 6 C-0.67 4.02 -0.34 2.04 0 0 Z " fill="#E79F73" transform="translate(53,87)"/>
</svg>
